<svg width="20" height="20" viewBox="0 0 20 20" fill="none" xmlns="http://www.w3.org/2000/svg">
<path d="M9.99858 5.49858C9.10856 5.49858 8.23853 5.7625 7.49851 6.25697C6.75849 6.75143 6.18172 7.45424 5.84112 8.2765C5.50053 9.09877 5.41141 10.0036 5.58504 10.8765C5.75868 11.7494 6.18726 12.5512 6.8166 13.1806C7.44593 13.8099 8.24776 14.2385 9.12067 14.4121C9.99359 14.5857 10.8984 14.4966 11.7207 14.156C12.5429 13.8154 13.2457 13.2387 13.7402 12.4986C14.2347 11.7586 14.4986 10.8886 14.4986 9.99858C14.4973 8.80549 14.0228 7.66161 13.1792 6.81797C12.3355 5.97432 11.1917 5.49982 9.99858 5.49858ZM9.99858 12.9986C9.40524 12.9986 8.82522 12.8226 8.33187 12.493C7.83852 12.1633 7.454 11.6948 7.22694 11.1466C6.99988 10.5985 6.94047 9.99525 7.05622 9.41331C7.17198 8.83136 7.4577 8.29682 7.87726 7.87726C8.29682 7.4577 8.83136 7.17198 9.41331 7.05622C9.99525 6.94047 10.5985 6.99988 11.1466 7.22694C11.6948 7.454 12.1633 7.83852 12.493 8.33187C12.8226 8.82522 12.9986 9.40524 12.9986 9.99858C12.9986 10.7942 12.6825 11.5573 12.1199 12.1199C11.5573 12.6825 10.7942 12.9986 9.99858 12.9986ZM18.2486 10.2011C18.2523 10.0661 18.2523 9.93108 18.2486 9.79608L19.6473 8.04858C19.7207 7.95683 19.7714 7.84913 19.7955 7.73417C19.8196 7.6192 19.8164 7.50019 19.7861 7.3867C19.5568 6.52477 19.2138 5.69719 18.7661 4.92577C18.7075 4.82481 18.6261 4.73894 18.5284 4.67498C18.4308 4.61101 18.3195 4.57073 18.2036 4.55733L15.9798 4.30983C15.8873 4.21233 15.7936 4.11858 15.6986 4.02858L15.4361 1.7992C15.4226 1.68315 15.3822 1.57186 15.318 1.4742C15.2539 1.37654 15.1678 1.29521 15.0667 1.2367C14.295 0.789841 13.4675 0.447173 12.6058 0.21764C12.4922 0.18745 12.3732 0.184362 12.2582 0.208626C12.1432 0.232889 12.0356 0.283825 11.9439 0.357328L10.2011 1.74858C10.0661 1.74858 9.93108 1.74858 9.79608 1.74858L8.04858 0.352641C7.95683 0.279298 7.84913 0.228532 7.73417 0.204432C7.6192 0.180332 7.50019 0.183572 7.3867 0.21389C6.52491 0.443603 5.69738 0.786593 4.92577 1.23389C4.82481 1.29251 4.73894 1.37388 4.67498 1.47154C4.61101 1.56919 4.57073 1.68043 4.55733 1.79639L4.30983 4.02389C4.21233 4.11702 4.11858 4.21077 4.02858 4.30514L1.7992 4.56108C1.68315 4.57458 1.57186 4.61501 1.4742 4.67914C1.37654 4.74327 1.29521 4.82933 1.2367 4.93045C0.789841 5.70217 0.447173 6.52968 0.21764 7.39139C0.18745 7.50495 0.184362 7.624 0.208626 7.73897C0.232889 7.85394 0.283825 7.9616 0.357328 8.05327L1.74858 9.79608C1.74858 9.93108 1.74858 10.0661 1.74858 10.2011L0.352641 11.9486C0.279298 12.0403 0.228532 12.148 0.204432 12.263C0.180332 12.378 0.183572 12.497 0.21389 12.6105C0.443193 13.4724 0.786205 14.3 1.23389 15.0714C1.29251 15.1723 1.37388 15.2582 1.47154 15.3222C1.56919 15.3861 1.68043 15.4264 1.79639 15.4398L4.02014 15.6873C4.11327 15.7848 4.20702 15.8786 4.30139 15.9686L4.56108 18.198C4.57458 18.314 4.61501 18.4253 4.67914 18.523C4.74327 18.6206 4.82933 18.7019 4.93045 18.7605C5.70217 19.2073 6.52968 19.55 7.39139 19.7795C7.50495 19.8097 7.624 19.8128 7.73897 19.7885C7.85394 19.7643 7.9616 19.7133 8.05327 19.6398L9.79608 18.2486C9.93108 18.2523 10.0661 18.2523 10.2011 18.2486L11.9486 19.6473C12.0403 19.7207 12.148 19.7714 12.263 19.7955C12.378 19.8196 12.497 19.8164 12.6105 19.7861C13.4724 19.5568 14.3 19.2138 15.0714 18.7661C15.1723 18.7075 15.2582 18.6261 15.3222 18.5284C15.3861 18.4308 15.4264 18.3195 15.4398 18.2036L15.6873 15.9798C15.7848 15.8873 15.8786 15.7936 15.9686 15.6986L18.198 15.4361C18.314 15.4226 18.4253 15.3822 18.523 15.318C18.6206 15.2539 18.7019 15.1678 18.7605 15.0667C19.2073 14.295 19.55 13.4675 19.7795 12.6058C19.8097 12.4922 19.8128 12.3732 19.7885 12.2582C19.7643 12.1432 19.7133 12.0356 19.6398 11.9439L18.2486 10.2011ZM16.7392 9.5917C16.7551 9.86272 16.7551 10.1344 16.7392 10.4055C16.728 10.591 16.7862 10.7741 16.9023 10.9192L18.2326 12.5814C18.08 13.0665 17.8845 13.5371 17.6486 13.9876L15.5298 14.2276C15.3453 14.2481 15.175 14.3363 15.0517 14.4751C14.8712 14.6781 14.679 14.8703 14.4761 15.0508C14.3372 15.174 14.2491 15.3444 14.2286 15.5289L13.9933 17.6458C13.5428 17.8818 13.0722 18.0773 12.587 18.2298L10.9239 16.8995C10.7908 16.7932 10.6255 16.7353 10.4551 16.7355H10.4101C10.1391 16.7514 9.86741 16.7514 9.59639 16.7355C9.41084 16.7243 9.22776 16.7824 9.08264 16.8986L7.41577 18.2298C6.93064 18.0772 6.46004 17.8817 6.00952 17.6458L5.76952 15.5298C5.74903 15.3453 5.66085 15.175 5.52202 15.0517C5.31906 14.8712 5.12685 14.679 4.94639 14.4761C4.82314 14.3372 4.65278 14.2491 4.46827 14.2286L2.35139 13.9923C2.11532 13.5419 1.91986 13.0712 1.76733 12.5861L3.09764 10.923C3.2138 10.7778 3.27193 10.5948 3.26077 10.4092C3.24483 10.1382 3.24483 9.86647 3.26077 9.59545C3.27193 9.40991 3.2138 9.22682 3.09764 9.0817L1.76733 7.41577C1.91998 6.93064 2.11543 6.46004 2.35139 6.00952L4.46733 5.76952C4.65184 5.74903 4.8222 5.66085 4.94545 5.52202C5.12591 5.31906 5.31812 5.12685 5.52108 4.94639C5.66046 4.82306 5.74901 4.65231 5.76952 4.46733L6.00483 2.35139C6.4553 2.11532 6.92591 1.91986 7.41108 1.76733L9.0742 3.09764C9.21932 3.2138 9.40241 3.27193 9.58795 3.26077C9.85897 3.24483 10.1307 3.24483 10.4017 3.26077C10.5873 3.27193 10.7703 3.2138 10.9155 3.09764L12.5814 1.76733C13.0665 1.91998 13.5371 2.11543 13.9876 2.35139L14.2276 4.46733C14.2481 4.65184 14.3363 4.8222 14.4751 4.94545C14.6781 5.12591 14.8703 5.31812 15.0508 5.52108C15.174 5.65991 15.3444 5.7481 15.5289 5.76858L17.6458 6.00389C17.8818 6.45436 18.0773 6.92497 18.2298 7.41014L16.8995 9.07327C16.7822 9.21961 16.724 9.40457 16.7364 9.5917H16.7392Z" fill="#EBFAF2"/>
</svg>
