<svg width="21" height="20" viewBox="0 0 21 20" fill="none" xmlns="http://www.w3.org/2000/svg">
<path d="M10.5 0.25C8.57164 0.25 6.68657 0.821828 5.08319 1.89317C3.47982 2.96452 2.23013 4.48726 1.49218 6.26884C0.754224 8.05042 0.561142 10.0108 0.937348 11.9021C1.31355 13.7934 2.24215 15.5307 3.60571 16.8943C4.96927 18.2579 6.70656 19.1865 8.59787 19.5627C10.4892 19.9389 12.4496 19.7458 14.2312 19.0078C16.0127 18.2699 17.5355 17.0202 18.6068 15.4168C19.6782 13.8134 20.25 11.9284 20.25 10C20.247 7.41505 19.2188 4.93683 17.391 3.109C15.5632 1.28116 13.085 0.252977 10.5 0.25ZM18.75 10C18.7507 10.7608 18.6456 11.5181 18.4378 12.25H14.8275C15.0575 10.7588 15.0575 9.24118 14.8275 7.75H18.4378C18.6456 8.48192 18.7507 9.23916 18.75 10ZM8.0625 13.75H12.9375C12.4572 15.3237 11.6235 16.7667 10.5 17.9688C9.37695 16.7664 8.54326 15.3235 8.0625 13.75ZM7.69688 12.25C7.43939 10.7611 7.43939 9.23895 7.69688 7.75H13.3106C13.5681 9.23895 13.5681 10.7611 13.3106 12.25H7.69688ZM2.25 10C2.24935 9.23916 2.35442 8.48192 2.56219 7.75H6.1725C5.9425 9.24118 5.9425 10.7588 6.1725 12.25H2.56219C2.35442 11.5181 2.24935 10.7608 2.25 10ZM12.9375 6.25H8.0625C8.54277 4.67632 9.37652 3.2333 10.5 2.03125C11.6231 3.23361 12.4567 4.67653 12.9375 6.25ZM17.8434 6.25H14.5041C14.0832 4.70585 13.3738 3.25532 12.4134 1.975C13.5738 2.25375 14.6602 2.7801 15.598 3.51799C16.5359 4.25588 17.3032 5.18784 17.8472 6.25H17.8434ZM8.58657 1.975C7.62619 3.25532 6.91683 4.70585 6.49594 6.25H3.15282C3.69682 5.18784 4.46407 4.25588 5.40196 3.51799C6.33985 2.7801 7.42621 2.25375 8.58657 1.975ZM3.15282 13.75H6.49594C6.91683 15.2941 7.62619 16.7447 8.58657 18.025C7.42621 17.7463 6.33985 17.2199 5.40196 16.482C4.46407 15.7441 3.69682 14.8122 3.15282 13.75ZM12.4134 18.025C13.3738 16.7447 14.0832 15.2941 14.5041 13.75H17.8472C17.3032 14.8122 16.5359 15.7441 15.598 16.482C14.6602 17.2199 13.5738 17.7463 12.4134 18.025Z" fill="#EBFAF2"/>
</svg>
