<svg width="18" height="18" viewBox="0 0 18 18" fill="none" xmlns="http://www.w3.org/2000/svg">
<path d="M13.875 10.5H12V7.5H13.875C14.5425 7.5 15.195 7.30206 15.7501 6.93121C16.3051 6.56036 16.7376 6.03326 16.9931 5.41656C17.2485 4.79986 17.3154 4.12126 17.1852 3.46657C17.0549 2.81189 16.7335 2.21052 16.2615 1.73852C15.7895 1.26651 15.1881 0.945076 14.5334 0.814851C13.8787 0.684626 13.2001 0.751462 12.5834 1.00691C11.9667 1.26235 11.4396 1.69494 11.0688 2.24995C10.6979 2.80497 10.5 3.45749 10.5 4.125V6H7.5V4.125C7.5 3.45749 7.30206 2.80497 6.93121 2.24995C6.56036 1.69494 6.03326 1.26235 5.41656 1.00691C4.79986 0.751462 4.12126 0.684626 3.46657 0.814851C2.81189 0.945076 2.21052 1.26651 1.73852 1.73852C1.26651 2.21052 0.945076 2.81189 0.814851 3.46657C0.684626 4.12126 0.751462 4.79986 1.00691 5.41656C1.26235 6.03326 1.69494 6.56036 2.24995 6.93121C2.80497 7.30206 3.45749 7.5 4.125 7.5H6V10.5H4.125C3.45749 10.5 2.80497 10.6979 2.24995 11.0688C1.69494 11.4396 1.26235 11.9667 1.00691 12.5834C0.751462 13.2001 0.684626 13.8787 0.814851 14.5334C0.945076 15.1881 1.26651 15.7895 1.73852 16.2615C2.21052 16.7335 2.81189 17.0549 3.46657 17.1852C4.12126 17.3154 4.79986 17.2485 5.41656 16.9931C6.03326 16.7376 6.56036 16.3051 6.93121 15.7501C7.30206 15.195 7.5 14.5425 7.5 13.875V12H10.5V13.875C10.5 14.5425 10.6979 15.195 11.0688 15.7501C11.4396 16.3051 11.9667 16.7376 12.5834 16.9931C13.2001 17.2485 13.8787 17.3154 14.5334 17.1852C15.1881 17.0549 15.7895 16.7335 16.2615 16.2615C16.7335 15.7895 17.0549 15.1881 17.1852 14.5334C17.3154 13.8787 17.2485 13.2001 16.9931 12.5834C16.7376 11.9667 16.3051 11.4396 15.7501 11.0688C15.195 10.6979 14.5425 10.5 13.875 10.5ZM12 4.125C12 3.75416 12.11 3.39165 12.316 3.08331C12.522 2.77497 12.8149 2.53464 13.1575 2.39273C13.5001 2.25081 13.8771 2.21368 14.2408 2.28603C14.6045 2.35838 14.9386 2.53695 15.2008 2.79918C15.4631 3.0614 15.6416 3.39549 15.714 3.75921C15.7863 4.12292 15.7492 4.49992 15.6073 4.84253C15.4654 5.18514 15.225 5.47798 14.9167 5.68401C14.6084 5.89004 14.2458 6 13.875 6H12V4.125ZM2.25 4.125C2.25 3.62772 2.44755 3.15081 2.79918 2.79918C3.15081 2.44755 3.62772 2.25 4.125 2.25C4.62228 2.25 5.0992 2.44755 5.45083 2.79918C5.80246 3.15081 6 3.62772 6 4.125V6H4.125C3.62772 6 3.15081 5.80246 2.79918 5.45083C2.44755 5.0992 2.25 4.62228 2.25 4.125ZM6 13.875C6 14.2458 5.89004 14.6084 5.68401 14.9167C5.47798 15.225 5.18514 15.4654 4.84253 15.6073C4.49992 15.7492 4.12292 15.7863 3.75921 15.714C3.39549 15.6416 3.0614 15.4631 2.79918 15.2008C2.53695 14.9386 2.35838 14.6045 2.28603 14.2408C2.21368 13.8771 2.25081 13.5001 2.39273 13.1575C2.53464 12.8149 2.77497 12.522 3.08331 12.316C3.39165 12.11 3.75416 12 4.125 12H6V13.875ZM7.5 7.5H10.5V10.5H7.5V7.5ZM13.875 15.75C13.3777 15.75 12.9008 15.5525 12.5492 15.2008C12.1975 14.8492 12 14.3723 12 13.875V12H13.875C14.3723 12 14.8492 12.1975 15.2008 12.5492C15.5525 12.9008 15.75 13.3777 15.75 13.875C15.75 14.3723 15.5525 14.8492 15.2008 15.2008C14.8492 15.5525 14.3723 15.75 13.875 15.75Z" fill="#EAECE9"/>
</svg>
