<svg width="18" height="22" viewBox="0 0 18 22" fill="none" xmlns="http://www.w3.org/2000/svg">
<path d="M9.75 14V20.75C9.75 20.9489 9.67098 21.1397 9.53033 21.2803C9.38968 21.421 9.19891 21.5 9 21.5C8.80109 21.5 8.61032 21.421 8.46967 21.2803C8.32902 21.1397 8.25 20.9489 8.25 20.75V14C8.25 13.8011 8.32902 13.6103 8.46967 13.4697C8.61032 13.329 8.80109 13.25 9 13.25C9.19891 13.25 9.38968 13.329 9.53033 13.4697C9.67098 13.6103 9.75 13.8011 9.75 14ZM16.5 8H10.8103L14.7806 4.03062C14.9214 3.88989 15.0004 3.69902 15.0004 3.5C15.0004 3.30098 14.9214 3.11011 14.7806 2.96938C14.6399 2.82864 14.449 2.74958 14.25 2.74958C14.051 2.74958 13.8601 2.82864 13.7194 2.96938L9.75 6.93969V1.25C9.75 1.05109 9.67098 0.860322 9.53033 0.71967C9.38968 0.579018 9.19891 0.5 9 0.5C8.80109 0.5 8.61032 0.579018 8.46967 0.71967C8.32902 0.860322 8.25 1.05109 8.25 1.25V6.93969L4.28063 2.96938C4.13989 2.82864 3.94902 2.74958 3.75 2.74958C3.55098 2.74958 3.36011 2.82864 3.21938 2.96938C3.07864 3.11011 2.99958 3.30098 2.99958 3.5C2.99958 3.69902 3.07864 3.88989 3.21937 4.03062L7.18969 8H1.5C1.30109 8 1.11032 8.07902 0.96967 8.21967C0.829018 8.36032 0.75 8.55109 0.75 8.75C0.75 8.94891 0.829018 9.13968 0.96967 9.28033C1.11032 9.42098 1.30109 9.5 1.5 9.5H7.18969L3.21937 13.4694C3.07864 13.6101 2.99958 13.801 2.99958 14C2.99958 14.199 3.07864 14.3899 3.21937 14.5306C3.36011 14.6714 3.55098 14.7504 3.75 14.7504C3.94902 14.7504 4.13989 14.6714 4.28063 14.5306L9 9.81031L13.7194 14.5306C13.7891 14.6003 13.8718 14.6556 13.9628 14.6933C14.0539 14.731 14.1515 14.7504 14.25 14.7504C14.3485 14.7504 14.4461 14.731 14.5372 14.6933C14.6282 14.6556 14.7109 14.6003 14.7806 14.5306C14.8503 14.4609 14.9056 14.3782 14.9433 14.2872C14.981 14.1961 15.0004 14.0985 15.0004 14C15.0004 13.9015 14.981 13.8039 14.9433 13.7128C14.9056 13.6218 14.8503 13.5391 14.7806 13.4694L10.8103 9.5H16.5C16.6989 9.5 16.8897 9.42098 17.0303 9.28033C17.171 9.13968 17.25 8.94891 17.25 8.75C17.25 8.55109 17.171 8.36032 17.0303 8.21967C16.8897 8.07902 16.6989 8 16.5 8Z" fill="#EBFAF2"/>
</svg>
