<svg xmlns="http://www.w3.org/2000/svg" xmlns:xlink="http://www.w3.org/1999/xlink" width="500" zoomAndPan="magnify" viewBox="0 0 375 374.999991" height="500" preserveAspectRatio="xMidYMid meet" version="1.0"><defs><g/><clipPath id="5bd33abec7"><path d="M 0.4375 20.21875 L 76.964844 20.21875 L 76.964844 96.746094 L 0.4375 96.746094 Z M 0.4375 20.21875 " clip-rule="nonzero"/></clipPath><clipPath id="b165625868"><path d="M 13.683594 33.464844 L 63.753906 33.464844 L 63.753906 83.535156 L 13.683594 83.535156 Z M 13.683594 33.464844 " clip-rule="nonzero"/></clipPath><clipPath id="27ee41ef7f"><path d="M 38.71875 33.464844 C 24.890625 33.464844 13.683594 44.671875 13.683594 58.5 C 13.683594 72.328125 24.890625 83.535156 38.71875 83.535156 C 52.546875 83.535156 63.753906 72.328125 63.753906 58.5 C 63.753906 44.671875 52.546875 33.464844 38.71875 33.464844 Z M 38.71875 33.464844 " clip-rule="nonzero"/></clipPath><clipPath id="3c99dab6a1"><path d="M 0.683594 0.464844 L 50.753906 0.464844 L 50.753906 50.535156 L 0.683594 50.535156 Z M 0.683594 0.464844 " clip-rule="nonzero"/></clipPath><clipPath id="edb571b1ef"><path d="M 25.71875 0.464844 C 11.890625 0.464844 0.683594 11.671875 0.683594 25.5 C 0.683594 39.328125 11.890625 50.535156 25.71875 50.535156 C 39.546875 50.535156 50.753906 39.328125 50.753906 25.5 C 50.753906 11.671875 39.546875 0.464844 25.71875 0.464844 Z M 25.71875 0.464844 " clip-rule="nonzero"/></clipPath><clipPath id="c5c920ca36"><rect x="0" width="51" y="0" height="51"/></clipPath><clipPath id="1ed00a387d"><path d="M 42.5625 23.257812 L 74.308594 23.257812 L 74.308594 55.007812 L 42.5625 55.007812 Z M 42.5625 23.257812 " clip-rule="nonzero"/></clipPath><clipPath id="5cb9617e84"><path d="M 58.433594 23.257812 C 49.667969 23.257812 42.5625 30.367188 42.5625 39.132812 C 42.5625 47.898438 49.667969 55.007812 58.433594 55.007812 C 67.203125 55.007812 74.308594 47.898438 74.308594 39.132812 C 74.308594 30.367188 67.203125 23.257812 58.433594 23.257812 Z M 58.433594 23.257812 " clip-rule="nonzero"/></clipPath><clipPath id="cebfe4a6b0"><path d="M 0.5625 0.257812 L 32.308594 0.257812 L 32.308594 32.007812 L 0.5625 32.007812 Z M 0.5625 0.257812 " clip-rule="nonzero"/></clipPath><clipPath id="6465ef3cc0"><path d="M 16.433594 0.257812 C 7.667969 0.257812 0.5625 7.367188 0.5625 16.132812 C 0.5625 24.898438 7.667969 32.007812 16.433594 32.007812 C 25.203125 32.007812 32.308594 24.898438 32.308594 16.132812 C 32.308594 7.367188 25.203125 0.257812 16.433594 0.257812 Z M 16.433594 0.257812 " clip-rule="nonzero"/></clipPath><clipPath id="cec35d0073"><rect x="0" width="33" y="0" height="33"/></clipPath><clipPath id="de62be147e"><path d="M 28 31 L 69 31 L 69 75 L 28 75 Z M 28 31 " clip-rule="nonzero"/></clipPath><clipPath id="86fb137923"><path d="M 22.277344 36.777344 L 67.414062 26.433594 L 77.214844 69.195312 L 32.078125 79.539062 Z M 22.277344 36.777344 " clip-rule="nonzero"/></clipPath><clipPath id="2cb152cdfd"><path d="M 22.277344 36.777344 L 67.414062 26.433594 L 77.214844 69.195312 L 32.078125 79.539062 Z M 22.277344 36.777344 " clip-rule="nonzero"/></clipPath><clipPath id="7fb81801fb"><path d="M 76 0.121094 L 273.921875 0.121094 L 273.921875 116 L 76 116 Z M 76 0.121094 " clip-rule="nonzero"/></clipPath><clipPath id="457625134e"><rect x="0" width="198" y="0" height="116"/></clipPath><clipPath id="451f9102a3"><path d="M 46 90 L 236 90 L 236 125.640625 L 46 125.640625 Z M 46 90 " clip-rule="nonzero"/></clipPath><clipPath id="5322508c62"><rect x="0" width="190" y="0" height="36"/></clipPath><clipPath id="fd24f1397f"><rect x="0" width="274" y="0" height="126"/></clipPath></defs><rect x="-37.5" width="450" fill="#ffffff" y="-37.499999" height="449.999989" fill-opacity="1"/><rect x="-37.5" width="450" fill="#ffffff" y="-37.499999" height="449.999989" fill-opacity="1"/><g transform="matrix(1, 0, 0, 1, 46, 129)"><g clip-path="url(#fd24f1397f)"><g clip-path="url(#5bd33abec7)"><path fill="#2c3d21" d="M 38.714844 74.285156 C 29.996094 74.285156 22.929688 67.21875 22.929688 58.496094 C 22.929688 49.777344 29.996094 42.710938 38.714844 42.710938 C 47.4375 42.710938 54.503906 49.777344 54.503906 58.496094 C 54.503906 67.21875 47.4375 74.285156 38.714844 74.285156 Z M 74.929688 51.117188 L 67.859375 50.28125 C 67.222656 48.007812 66.316406 45.796875 65.136719 43.699219 L 69.542969 38.109375 C 70.277344 37.179688 70.199219 35.84375 69.359375 35.003906 L 62.207031 27.855469 C 61.371094 27.015625 60.035156 26.9375 59.101562 27.671875 L 53.515625 32.074219 C 51.417969 30.898438 49.203125 29.992188 46.933594 29.351562 L 46.097656 22.285156 C 45.957031 21.105469 44.960938 20.21875 43.773438 20.21875 L 33.660156 20.21875 C 32.472656 20.21875 31.472656 21.105469 31.335938 22.285156 L 30.496094 29.351562 C 28.226562 29.992188 26.015625 30.898438 23.917969 32.074219 L 18.328125 27.671875 C 17.398438 26.9375 16.0625 27.015625 15.222656 27.855469 L 8.074219 35.003906 C 7.234375 35.84375 7.15625 37.179688 7.890625 38.109375 L 12.292969 43.699219 C 11.117188 45.796875 10.210938 48.007812 9.570312 50.28125 L 2.503906 51.117188 C 1.324219 51.253906 0.4375 52.253906 0.4375 53.441406 L 0.4375 63.554688 C 0.4375 64.742188 1.324219 65.738281 2.503906 65.878906 L 9.570312 66.714844 C 10.210938 68.984375 11.117188 71.199219 12.292969 73.296875 L 7.890625 78.882812 C 7.15625 79.816406 7.234375 81.152344 8.074219 81.992188 L 15.222656 89.140625 C 16.0625 89.980469 17.398438 90.058594 18.328125 89.324219 L 23.917969 84.921875 C 26.015625 86.097656 28.226562 87.003906 30.496094 87.640625 L 31.335938 94.710938 C 31.472656 95.890625 32.472656 96.777344 33.660156 96.777344 L 43.605469 96.777344 C 44.769531 96.777344 45.757812 95.921875 45.921875 94.765625 L 46.933594 87.640625 C 49.203125 87.003906 51.417969 86.097656 53.515625 84.921875 L 59.101562 89.324219 C 60.035156 90.058594 61.371094 89.980469 62.207031 89.140625 L 69.359375 81.992188 C 70.199219 81.152344 70.277344 79.816406 69.542969 78.882812 L 65.136719 73.296875 C 66.316406 71.199219 67.222656 68.984375 67.859375 66.714844 L 74.929688 65.878906 C 76.109375 65.738281 76.996094 64.742188 76.996094 63.554688 L 76.996094 53.441406 C 76.996094 52.253906 76.109375 51.253906 74.929688 51.117188 " fill-opacity="1" fill-rule="nonzero"/></g><g clip-path="url(#b165625868)"><g clip-path="url(#27ee41ef7f)"><g transform="matrix(1, 0, 0, 1, 13, 33)"><g clip-path="url(#c5c920ca36)"><g clip-path="url(#3c99dab6a1)"><g clip-path="url(#edb571b1ef)"><path fill="#ffffff" d="M 0.683594 0.464844 L 50.753906 0.464844 L 50.753906 50.535156 L 0.683594 50.535156 Z M 0.683594 0.464844 " fill-opacity="1" fill-rule="nonzero"/></g></g></g></g></g></g><g clip-path="url(#1ed00a387d)"><g clip-path="url(#5cb9617e84)"><g transform="matrix(1, 0, 0, 1, 42, 23)"><g clip-path="url(#cec35d0073)"><g clip-path="url(#cebfe4a6b0)"><g clip-path="url(#6465ef3cc0)"><path fill="#ffffff" d="M 0.5625 0.257812 L 32.308594 0.257812 L 32.308594 32.007812 L 0.5625 32.007812 Z M 0.5625 0.257812 " fill-opacity="1" fill-rule="nonzero"/></g></g></g></g></g></g><g clip-path="url(#de62be147e)"><g clip-path="url(#86fb137923)"><g clip-path="url(#2cb152cdfd)"><path fill="#39ca7e" d="M 58.9375 36.367188 C 37.71875 41.128906 28.605469 53.636719 32.328125 74.34375 C 32.375 74.605469 32 74.703125 31.90625 74.457031 C 29.425781 67.980469 28.210938 61.839844 28.695312 56.148438 C 30.292969 37.363281 51.152344 30.164062 67.597656 32.222656 C 68.417969 32.328125 68.792969 33.265625 68.28125 33.914062 C 58.613281 46.09375 66.144531 71.554688 34.765625 66.964844 C 36.0625 51.949219 43.300781 41.167969 58.9375 36.367188 " fill-opacity="1" fill-rule="evenodd"/></g></g></g><g clip-path="url(#7fb81801fb)"><g transform="matrix(1, 0, 0, 1, 76, 0)"><g clip-path="url(#457625134e)"><g fill="#2c3d21" fill-opacity="1"><g transform="translate(1.00067, 85.743727)"><g><path d="M 34.34375 0 L 22.703125 -21.609375 L 20.953125 -21.609375 L 20.953125 0 L 4.65625 0 L 4.65625 -58.609375 L 30.34375 -58.609375 C 35.050781 -58.609375 39.039062 -57.789062 42.3125 -56.15625 C 45.582031 -54.519531 48.050781 -52.273438 49.71875 -49.421875 C 51.382812 -46.566406 52.21875 -43.367188 52.21875 -39.828125 C 52.21875 -35.835938 51.117188 -32.332031 48.921875 -29.3125 C 46.734375 -26.289062 43.535156 -24.140625 39.328125 -22.859375 L 52.546875 0 Z M 20.953125 -32.75 L 29.015625 -32.75 C 31.234375 -32.75 32.894531 -33.273438 34 -34.328125 C 35.113281 -35.390625 35.671875 -36.914062 35.671875 -38.90625 C 35.671875 -40.789062 35.101562 -42.273438 33.96875 -43.359375 C 32.832031 -44.441406 31.179688 -44.984375 29.015625 -44.984375 L 20.953125 -44.984375 Z M 20.953125 -32.75 "/></g></g></g><g fill="#2c3d21" fill-opacity="1"><g transform="translate(55.945953, 85.743727)"><g><path d="M 34.34375 0 L 22.703125 -21.609375 L 20.953125 -21.609375 L 20.953125 0 L 4.65625 0 L 4.65625 -58.609375 L 30.34375 -58.609375 C 35.050781 -58.609375 39.039062 -57.789062 42.3125 -56.15625 C 45.582031 -54.519531 48.050781 -52.273438 49.71875 -49.421875 C 51.382812 -46.566406 52.21875 -43.367188 52.21875 -39.828125 C 52.21875 -35.835938 51.117188 -32.332031 48.921875 -29.3125 C 46.734375 -26.289062 43.535156 -24.140625 39.328125 -22.859375 L 52.546875 0 Z M 20.953125 -32.75 L 29.015625 -32.75 C 31.234375 -32.75 32.894531 -33.273438 34 -34.328125 C 35.113281 -35.390625 35.671875 -36.914062 35.671875 -38.90625 C 35.671875 -40.789062 35.101562 -42.273438 33.96875 -43.359375 C 32.832031 -44.441406 31.179688 -44.984375 29.015625 -44.984375 L 20.953125 -44.984375 Z M 20.953125 -32.75 "/></g></g></g><g fill="#2c3d21" fill-opacity="1"><g transform="translate(110.891236, 85.743727)"><g><path d="M 20.953125 -45.5625 L 20.953125 -36 L 39.65625 -36 L 39.65625 -23.609375 L 20.953125 -23.609375 L 20.953125 -13.046875 L 42.15625 -13.046875 L 42.15625 0 L 4.65625 0 L 4.65625 -58.609375 L 42.15625 -58.609375 L 42.15625 -45.5625 Z M 20.953125 -45.5625 "/></g></g></g><g fill="#2c3d21" fill-opacity="1"><g transform="translate(156.443458, 85.743727)"><g><path d="M 20.953125 -12.46875 L 39.15625 -12.46875 L 39.15625 0 L 4.65625 0 L 4.65625 -58.609375 L 20.953125 -58.609375 Z M 20.953125 -12.46875 "/></g></g></g></g></g></g><g clip-path="url(#451f9102a3)"><g transform="matrix(1, 0, 0, 1, 46, 90)"><g clip-path="url(#5322508c62)"><g fill="#39ca7e" fill-opacity="1"><g transform="translate(7.998157, 15.387377)"><g><path d="M 5.6875 0.09375 C 4.738281 0.09375 3.863281 -0.125 3.0625 -0.5625 C 2.257812 -1.007812 1.625 -1.628906 1.15625 -2.421875 C 0.695312 -3.222656 0.46875 -4.125 0.46875 -5.125 C 0.46875 -6.125 0.695312 -7.019531 1.15625 -7.8125 C 1.625 -8.613281 2.257812 -9.234375 3.0625 -9.671875 C 3.863281 -10.117188 4.738281 -10.34375 5.6875 -10.34375 C 6.644531 -10.34375 7.519531 -10.117188 8.3125 -9.671875 C 9.113281 -9.234375 9.742188 -8.613281 10.203125 -7.8125 C 10.671875 -7.019531 10.90625 -6.125 10.90625 -5.125 C 10.90625 -4.125 10.671875 -3.222656 10.203125 -2.421875 C 9.742188 -1.628906 9.113281 -1.007812 8.3125 -0.5625 C 7.519531 -0.125 6.644531 0.09375 5.6875 0.09375 Z M 5.6875 -2.53125 C 6.40625 -2.53125 6.972656 -2.765625 7.390625 -3.234375 C 7.816406 -3.703125 8.03125 -4.332031 8.03125 -5.125 C 8.03125 -5.9375 7.816406 -6.570312 7.390625 -7.03125 C 6.972656 -7.5 6.40625 -7.734375 5.6875 -7.734375 C 4.957031 -7.734375 4.382812 -7.5 3.96875 -7.03125 C 3.550781 -6.570312 3.34375 -5.9375 3.34375 -5.125 C 3.34375 -4.320312 3.550781 -3.6875 3.96875 -3.21875 C 4.382812 -2.757812 4.957031 -2.53125 5.6875 -2.53125 Z M 5.6875 -2.53125 "/></g></g></g><g fill="#39ca7e" fill-opacity="1"><g transform="translate(19.351268, 15.387377)"><g><path d="M 4.65625 0.09375 C 3.46875 0.09375 2.492188 -0.1875 1.734375 -0.75 C 0.972656 -1.3125 0.5625 -2.113281 0.5 -3.15625 L 3.515625 -3.15625 C 3.546875 -2.800781 3.648438 -2.539062 3.828125 -2.375 C 4.015625 -2.21875 4.253906 -2.140625 4.546875 -2.140625 C 4.804688 -2.140625 5.019531 -2.203125 5.1875 -2.328125 C 5.351562 -2.460938 5.4375 -2.644531 5.4375 -2.875 C 5.4375 -3.175781 5.296875 -3.40625 5.015625 -3.5625 C 4.742188 -3.726562 4.296875 -3.910156 3.671875 -4.109375 C 3.003906 -4.335938 2.460938 -4.550781 2.046875 -4.75 C 1.640625 -4.957031 1.285156 -5.257812 0.984375 -5.65625 C 0.679688 -6.0625 0.53125 -6.585938 0.53125 -7.234375 C 0.53125 -7.890625 0.691406 -8.445312 1.015625 -8.90625 C 1.347656 -9.375 1.800781 -9.726562 2.375 -9.96875 C 2.957031 -10.21875 3.613281 -10.34375 4.34375 -10.34375 C 5.53125 -10.34375 6.476562 -10.0625 7.1875 -9.5 C 7.894531 -8.945312 8.269531 -8.171875 8.3125 -7.171875 L 5.234375 -7.171875 C 5.222656 -7.484375 5.128906 -7.710938 4.953125 -7.859375 C 4.773438 -8.015625 4.550781 -8.09375 4.28125 -8.09375 C 4.0625 -8.09375 3.882812 -8.03125 3.75 -7.90625 C 3.613281 -7.78125 3.546875 -7.601562 3.546875 -7.375 C 3.546875 -7.1875 3.617188 -7.019531 3.765625 -6.875 C 3.921875 -6.738281 4.109375 -6.617188 4.328125 -6.515625 C 4.546875 -6.410156 4.875 -6.285156 5.3125 -6.140625 C 5.957031 -5.910156 6.488281 -5.6875 6.90625 -5.46875 C 7.320312 -5.257812 7.679688 -4.957031 7.984375 -4.5625 C 8.296875 -4.175781 8.453125 -3.6875 8.453125 -3.09375 C 8.453125 -2.488281 8.296875 -1.941406 7.984375 -1.453125 C 7.679688 -0.972656 7.242188 -0.59375 6.671875 -0.3125 C 6.097656 -0.0390625 5.425781 0.09375 4.65625 0.09375 Z M 4.65625 0.09375 "/></g></g></g><g fill="#39ca7e" fill-opacity="1"><g transform="translate(28.295271, 15.387377)"><g><path d="M 12.6875 -10.171875 L 12.6875 0 L 9.859375 0 L 9.859375 -5.609375 L 7.9375 0 L 5.578125 0 L 3.640625 -5.65625 L 3.640625 0 L 0.8125 0 L 0.8125 -10.171875 L 4.234375 -10.171875 L 6.78125 -3.5625 L 9.28125 -10.171875 Z M 12.6875 -10.171875 "/></g></g></g><g fill="#39ca7e" fill-opacity="1"><g transform="translate(41.783403, 15.387377)"><g><path d="M 3.640625 -10.171875 L 3.640625 0 L 0.8125 0 L 0.8125 -10.171875 Z M 3.640625 -10.171875 "/></g></g></g><g fill="#39ca7e" fill-opacity="1"><g transform="translate(46.226548, 15.387377)"><g><path d="M 3.578125 -10.171875 L 3.578125 -4.28125 C 3.578125 -3.726562 3.703125 -3.300781 3.953125 -3 C 4.210938 -2.707031 4.601562 -2.5625 5.125 -2.5625 C 5.644531 -2.5625 6.035156 -2.710938 6.296875 -3.015625 C 6.566406 -3.316406 6.703125 -3.738281 6.703125 -4.28125 L 6.703125 -10.171875 L 9.53125 -10.171875 L 9.53125 -4.28125 C 9.53125 -3.34375 9.332031 -2.539062 8.9375 -1.875 C 8.539062 -1.21875 8.003906 -0.722656 7.328125 -0.390625 C 6.648438 -0.0664062 5.894531 0.09375 5.0625 0.09375 C 4.238281 0.09375 3.5 -0.0664062 2.84375 -0.390625 C 2.195312 -0.722656 1.6875 -1.21875 1.3125 -1.875 C 0.945312 -2.53125 0.765625 -3.332031 0.765625 -4.28125 L 0.765625 -10.171875 Z M 3.578125 -10.171875 "/></g></g></g><g fill="#39ca7e" fill-opacity="1"><g transform="translate(56.497723, 15.387377)"><g><path d="M 12.6875 -10.171875 L 12.6875 0 L 9.859375 0 L 9.859375 -5.609375 L 7.9375 0 L 5.578125 0 L 3.640625 -5.65625 L 3.640625 0 L 0.8125 0 L 0.8125 -10.171875 L 4.234375 -10.171875 L 6.78125 -3.5625 L 9.28125 -10.171875 Z M 12.6875 -10.171875 "/></g></g></g><g fill="#39ca7e" fill-opacity="1"><g transform="translate(69.985855, 15.387377)"><g/></g></g><g fill="#39ca7e" fill-opacity="1"><g transform="translate(72.74118, 15.387377)"><g><path d="M 5.96875 0 L 3.9375 -3.75 L 3.640625 -3.75 L 3.640625 0 L 0.8125 0 L 0.8125 -10.171875 L 5.265625 -10.171875 C 6.085938 -10.171875 6.78125 -10.03125 7.34375 -9.75 C 7.914062 -9.46875 8.34375 -9.078125 8.625 -8.578125 C 8.914062 -8.085938 9.0625 -7.535156 9.0625 -6.921875 C 9.0625 -6.222656 8.867188 -5.609375 8.484375 -5.078125 C 8.109375 -4.554688 7.554688 -4.1875 6.828125 -3.96875 L 9.125 0 Z M 3.640625 -5.6875 L 5.03125 -5.6875 C 5.414062 -5.6875 5.703125 -5.773438 5.890625 -5.953125 C 6.085938 -6.140625 6.1875 -6.40625 6.1875 -6.75 C 6.1875 -7.082031 6.085938 -7.34375 5.890625 -7.53125 C 5.703125 -7.71875 5.414062 -7.8125 5.03125 -7.8125 L 3.640625 -7.8125 Z M 3.640625 -5.6875 "/></g></g></g><g fill="#39ca7e" fill-opacity="1"><g transform="translate(82.276637, 15.387377)"><g><path d="M 5.6875 0.09375 C 4.738281 0.09375 3.863281 -0.125 3.0625 -0.5625 C 2.257812 -1.007812 1.625 -1.628906 1.15625 -2.421875 C 0.695312 -3.222656 0.46875 -4.125 0.46875 -5.125 C 0.46875 -6.125 0.695312 -7.019531 1.15625 -7.8125 C 1.625 -8.613281 2.257812 -9.234375 3.0625 -9.671875 C 3.863281 -10.117188 4.738281 -10.34375 5.6875 -10.34375 C 6.644531 -10.34375 7.519531 -10.117188 8.3125 -9.671875 C 9.113281 -9.234375 9.742188 -8.613281 10.203125 -7.8125 C 10.671875 -7.019531 10.90625 -6.125 10.90625 -5.125 C 10.90625 -4.125 10.671875 -3.222656 10.203125 -2.421875 C 9.742188 -1.628906 9.113281 -1.007812 8.3125 -0.5625 C 7.519531 -0.125 6.644531 0.09375 5.6875 0.09375 Z M 5.6875 -2.53125 C 6.40625 -2.53125 6.972656 -2.765625 7.390625 -3.234375 C 7.816406 -3.703125 8.03125 -4.332031 8.03125 -5.125 C 8.03125 -5.9375 7.816406 -6.570312 7.390625 -7.03125 C 6.972656 -7.5 6.40625 -7.734375 5.6875 -7.734375 C 4.957031 -7.734375 4.382812 -7.5 3.96875 -7.03125 C 3.550781 -6.570312 3.34375 -5.9375 3.34375 -5.125 C 3.34375 -4.320312 3.550781 -3.6875 3.96875 -3.21875 C 4.382812 -2.757812 4.957031 -2.53125 5.6875 -2.53125 Z M 5.6875 -2.53125 "/></g></g></g><g fill="#39ca7e" fill-opacity="1"><g transform="translate(93.629748, 15.387377)"><g><path d="M 7.3125 -5.21875 C 7.90625 -5.09375 8.375 -4.800781 8.71875 -4.34375 C 9.070312 -3.882812 9.25 -3.359375 9.25 -2.765625 C 9.25 -1.898438 8.953125 -1.222656 8.359375 -0.734375 C 7.765625 -0.242188 6.925781 0 5.84375 0 L 0.8125 0 L 0.8125 -10.171875 L 5.6875 -10.171875 C 6.726562 -10.171875 7.539062 -9.941406 8.125 -9.484375 C 8.71875 -9.023438 9.015625 -8.375 9.015625 -7.53125 C 9.015625 -6.9375 8.859375 -6.4375 8.546875 -6.03125 C 8.234375 -5.632812 7.820312 -5.363281 7.3125 -5.21875 Z M 3.640625 -6.140625 L 5.0625 -6.140625 C 5.78125 -6.140625 6.140625 -6.429688 6.140625 -7.015625 C 6.140625 -7.617188 5.78125 -7.921875 5.0625 -7.921875 L 3.640625 -7.921875 Z M 5.28125 -2.28125 C 6 -2.28125 6.359375 -2.578125 6.359375 -3.171875 C 6.359375 -3.484375 6.265625 -3.71875 6.078125 -3.875 C 5.890625 -4.039062 5.617188 -4.125 5.265625 -4.125 L 3.640625 -4.125 L 3.640625 -2.28125 Z M 5.28125 -2.28125 "/></g></g></g><g fill="#39ca7e" fill-opacity="1"><g transform="translate(103.309469, 15.387377)"><g><path d="M 5.6875 0.09375 C 4.738281 0.09375 3.863281 -0.125 3.0625 -0.5625 C 2.257812 -1.007812 1.625 -1.628906 1.15625 -2.421875 C 0.695312 -3.222656 0.46875 -4.125 0.46875 -5.125 C 0.46875 -6.125 0.695312 -7.019531 1.15625 -7.8125 C 1.625 -8.613281 2.257812 -9.234375 3.0625 -9.671875 C 3.863281 -10.117188 4.738281 -10.34375 5.6875 -10.34375 C 6.644531 -10.34375 7.519531 -10.117188 8.3125 -9.671875 C 9.113281 -9.234375 9.742188 -8.613281 10.203125 -7.8125 C 10.671875 -7.019531 10.90625 -6.125 10.90625 -5.125 C 10.90625 -4.125 10.671875 -3.222656 10.203125 -2.421875 C 9.742188 -1.628906 9.113281 -1.007812 8.3125 -0.5625 C 7.519531 -0.125 6.644531 0.09375 5.6875 0.09375 Z M 5.6875 -2.53125 C 6.40625 -2.53125 6.972656 -2.765625 7.390625 -3.234375 C 7.816406 -3.703125 8.03125 -4.332031 8.03125 -5.125 C 8.03125 -5.9375 7.816406 -6.570312 7.390625 -7.03125 C 6.972656 -7.5 6.40625 -7.734375 5.6875 -7.734375 C 4.957031 -7.734375 4.382812 -7.5 3.96875 -7.03125 C 3.550781 -6.570312 3.34375 -5.9375 3.34375 -5.125 C 3.34375 -4.320312 3.550781 -3.6875 3.96875 -3.21875 C 4.382812 -2.757812 4.957031 -2.53125 5.6875 -2.53125 Z M 5.6875 -2.53125 "/></g></g></g><g fill="#39ca7e" fill-opacity="1"><g transform="translate(114.662579, 15.387377)"><g><path d="M 8.46875 -10.171875 L 8.46875 -7.921875 L 5.765625 -7.921875 L 5.765625 0 L 2.9375 0 L 2.9375 -7.921875 L 0.25 -7.921875 L 0.25 -10.171875 Z M 8.46875 -10.171875 "/></g></g></g><g fill="#39ca7e" fill-opacity="1"><g transform="translate(123.375767, 15.387377)"><g><path d="M 3.640625 -10.171875 L 3.640625 0 L 0.8125 0 L 0.8125 -10.171875 Z M 3.640625 -10.171875 "/></g></g></g><g fill="#39ca7e" fill-opacity="1"><g transform="translate(127.818912, 15.387377)"><g><path d="M 0.46875 -5.109375 C 0.46875 -6.109375 0.675781 -7 1.09375 -7.78125 C 1.507812 -8.570312 2.101562 -9.1875 2.875 -9.625 C 3.644531 -10.0625 4.53125 -10.28125 5.53125 -10.28125 C 6.800781 -10.28125 7.867188 -9.941406 8.734375 -9.265625 C 9.597656 -8.585938 10.15625 -7.664062 10.40625 -6.5 L 7.359375 -6.5 C 7.179688 -6.882812 6.929688 -7.175781 6.609375 -7.375 C 6.285156 -7.582031 5.910156 -7.6875 5.484375 -7.6875 C 4.828125 -7.6875 4.300781 -7.453125 3.90625 -6.984375 C 3.519531 -6.515625 3.328125 -5.890625 3.328125 -5.109375 C 3.328125 -4.316406 3.519531 -3.6875 3.90625 -3.21875 C 4.300781 -2.757812 4.828125 -2.53125 5.484375 -2.53125 C 5.910156 -2.53125 6.285156 -2.628906 6.609375 -2.828125 C 6.929688 -3.035156 7.179688 -3.328125 7.359375 -3.703125 L 10.40625 -3.703125 C 10.15625 -2.546875 9.597656 -1.625 8.734375 -0.9375 C 7.867188 -0.257812 6.800781 0.078125 5.53125 0.078125 C 4.53125 0.078125 3.644531 -0.140625 2.875 -0.578125 C 2.101562 -1.015625 1.507812 -1.625 1.09375 -2.40625 C 0.675781 -3.195312 0.46875 -4.097656 0.46875 -5.109375 Z M 0.46875 -5.109375 "/></g></g></g><g fill="#39ca7e" fill-opacity="1"><g transform="translate(138.753684, 15.387377)"><g><path d="M 4.65625 0.09375 C 3.46875 0.09375 2.492188 -0.1875 1.734375 -0.75 C 0.972656 -1.3125 0.5625 -2.113281 0.5 -3.15625 L 3.515625 -3.15625 C 3.546875 -2.800781 3.648438 -2.539062 3.828125 -2.375 C 4.015625 -2.21875 4.253906 -2.140625 4.546875 -2.140625 C 4.804688 -2.140625 5.019531 -2.203125 5.1875 -2.328125 C 5.351562 -2.460938 5.4375 -2.644531 5.4375 -2.875 C 5.4375 -3.175781 5.296875 -3.40625 5.015625 -3.5625 C 4.742188 -3.726562 4.296875 -3.910156 3.671875 -4.109375 C 3.003906 -4.335938 2.460938 -4.550781 2.046875 -4.75 C 1.640625 -4.957031 1.285156 -5.257812 0.984375 -5.65625 C 0.679688 -6.0625 0.53125 -6.585938 0.53125 -7.234375 C 0.53125 -7.890625 0.691406 -8.445312 1.015625 -8.90625 C 1.347656 -9.375 1.800781 -9.726562 2.375 -9.96875 C 2.957031 -10.21875 3.613281 -10.34375 4.34375 -10.34375 C 5.53125 -10.34375 6.476562 -10.0625 7.1875 -9.5 C 7.894531 -8.945312 8.269531 -8.171875 8.3125 -7.171875 L 5.234375 -7.171875 C 5.222656 -7.484375 5.128906 -7.710938 4.953125 -7.859375 C 4.773438 -8.015625 4.550781 -8.09375 4.28125 -8.09375 C 4.0625 -8.09375 3.882812 -8.03125 3.75 -7.90625 C 3.613281 -7.78125 3.546875 -7.601562 3.546875 -7.375 C 3.546875 -7.1875 3.617188 -7.019531 3.765625 -6.875 C 3.921875 -6.738281 4.109375 -6.617188 4.328125 -6.515625 C 4.546875 -6.410156 4.875 -6.285156 5.3125 -6.140625 C 5.957031 -5.910156 6.488281 -5.6875 6.90625 -5.46875 C 7.320312 -5.257812 7.679688 -4.957031 7.984375 -4.5625 C 8.296875 -4.175781 8.453125 -3.6875 8.453125 -3.09375 C 8.453125 -2.488281 8.296875 -1.941406 7.984375 -1.453125 C 7.679688 -0.972656 7.242188 -0.59375 6.671875 -0.3125 C 6.097656 -0.0390625 5.425781 0.09375 4.65625 0.09375 Z M 4.65625 0.09375 "/></g></g></g><g fill="#39ca7e" fill-opacity="1"><g transform="translate(147.697688, 15.387377)"><g/></g></g><g fill="#39ca7e" fill-opacity="1"><g transform="translate(150.453013, 15.387377)"><g><path d="M 7.25 -1.65625 L 3.640625 -1.65625 L 3.09375 0 L 0.109375 0 L 3.828125 -10.171875 L 7.09375 -10.171875 L 10.78125 0 L 7.796875 0 Z M 6.546875 -3.828125 L 5.4375 -7.125 L 4.359375 -3.828125 Z M 6.546875 -3.828125 "/></g></g></g><g fill="#39ca7e" fill-opacity="1"><g transform="translate(161.344503, 15.387377)"><g><path d="M 10.234375 0 L 7.40625 0 L 3.640625 -5.6875 L 3.640625 0 L 0.8125 0 L 0.8125 -10.171875 L 3.640625 -10.171875 L 7.40625 -4.421875 L 7.40625 -10.171875 L 10.234375 -10.171875 Z M 10.234375 0 "/></g></g></g><g fill="#39ca7e" fill-opacity="1"><g transform="translate(172.380246, 15.387377)"><g><path d="M 4.84375 -10.171875 C 5.90625 -10.171875 6.835938 -9.957031 7.640625 -9.53125 C 8.441406 -9.101562 9.0625 -8.503906 9.5 -7.734375 C 9.9375 -6.960938 10.15625 -6.082031 10.15625 -5.09375 C 10.15625 -4.113281 9.929688 -3.238281 9.484375 -2.46875 C 9.046875 -1.695312 8.425781 -1.09375 7.625 -0.65625 C 6.820312 -0.21875 5.894531 0 4.84375 0 L 0.8125 0 L 0.8125 -10.171875 Z M 4.625 -2.5 C 5.445312 -2.5 6.09375 -2.722656 6.5625 -3.171875 C 7.039062 -3.628906 7.28125 -4.269531 7.28125 -5.09375 C 7.28125 -5.9375 7.039062 -6.582031 6.5625 -7.03125 C 6.09375 -7.488281 5.445312 -7.71875 4.625 -7.71875 L 3.640625 -7.71875 L 3.640625 -2.5 Z M 4.625 -2.5 "/></g></g></g><g fill="#39ca7e" fill-opacity="1"><g transform="translate(1.50597, 30.387376)"><g><path d="M 5.96875 0 L 3.9375 -3.75 L 3.640625 -3.75 L 3.640625 0 L 0.8125 0 L 0.8125 -10.171875 L 5.265625 -10.171875 C 6.085938 -10.171875 6.78125 -10.03125 7.34375 -9.75 C 7.914062 -9.46875 8.34375 -9.078125 8.625 -8.578125 C 8.914062 -8.085938 9.0625 -7.535156 9.0625 -6.921875 C 9.0625 -6.222656 8.867188 -5.609375 8.484375 -5.078125 C 8.109375 -4.554688 7.554688 -4.1875 6.828125 -3.96875 L 9.125 0 Z M 3.640625 -5.6875 L 5.03125 -5.6875 C 5.414062 -5.6875 5.703125 -5.773438 5.890625 -5.953125 C 6.085938 -6.140625 6.1875 -6.40625 6.1875 -6.75 C 6.1875 -7.082031 6.085938 -7.34375 5.890625 -7.53125 C 5.703125 -7.71875 5.414062 -7.8125 5.03125 -7.8125 L 3.640625 -7.8125 Z M 3.640625 -5.6875 "/></g></g></g><g fill="#39ca7e" fill-opacity="1"><g transform="translate(11.041427, 30.387376)"><g><path d="M 3.640625 -7.90625 L 3.640625 -6.25 L 6.890625 -6.25 L 6.890625 -4.09375 L 3.640625 -4.09375 L 3.640625 -2.265625 L 7.3125 -2.265625 L 7.3125 0 L 0.8125 0 L 0.8125 -10.171875 L 7.3125 -10.171875 L 7.3125 -7.90625 Z M 3.640625 -7.90625 "/></g></g></g><g fill="#39ca7e" fill-opacity="1"><g transform="translate(18.946776, 30.387376)"><g><path d="M 10.234375 0 L 7.40625 0 L 3.640625 -5.6875 L 3.640625 0 L 0.8125 0 L 0.8125 -10.171875 L 3.640625 -10.171875 L 7.40625 -4.421875 L 7.40625 -10.171875 L 10.234375 -10.171875 Z M 10.234375 0 "/></g></g></g><g fill="#39ca7e" fill-opacity="1"><g transform="translate(29.982519, 30.387376)"><g><path d="M 3.640625 -7.90625 L 3.640625 -6.25 L 6.890625 -6.25 L 6.890625 -4.09375 L 3.640625 -4.09375 L 3.640625 -2.265625 L 7.3125 -2.265625 L 7.3125 0 L 0.8125 0 L 0.8125 -10.171875 L 7.3125 -10.171875 L 7.3125 -7.90625 Z M 3.640625 -7.90625 "/></g></g></g><g fill="#39ca7e" fill-opacity="1"><g transform="translate(37.887868, 30.387376)"><g><path d="M 15.140625 -10.171875 L 12.640625 0 L 9.171875 0 L 7.765625 -6.234375 L 6.34375 0 L 2.859375 0 L 0.390625 -10.171875 L 3.453125 -10.171875 L 4.640625 -3.21875 L 6.234375 -10.171875 L 9.34375 -10.171875 L 10.90625 -3.28125 L 12.078125 -10.171875 Z M 15.140625 -10.171875 "/></g></g></g><g fill="#39ca7e" fill-opacity="1"><g transform="translate(53.410038, 30.387376)"><g><path d="M 7.25 -1.65625 L 3.640625 -1.65625 L 3.09375 0 L 0.109375 0 L 3.828125 -10.171875 L 7.09375 -10.171875 L 10.78125 0 L 7.796875 0 Z M 6.546875 -3.828125 L 5.4375 -7.125 L 4.359375 -3.828125 Z M 6.546875 -3.828125 "/></g></g></g><g fill="#39ca7e" fill-opacity="1"><g transform="translate(64.301529, 30.387376)"><g><path d="M 7.3125 -5.21875 C 7.90625 -5.09375 8.375 -4.800781 8.71875 -4.34375 C 9.070312 -3.882812 9.25 -3.359375 9.25 -2.765625 C 9.25 -1.898438 8.953125 -1.222656 8.359375 -0.734375 C 7.765625 -0.242188 6.925781 0 5.84375 0 L 0.8125 0 L 0.8125 -10.171875 L 5.6875 -10.171875 C 6.726562 -10.171875 7.539062 -9.941406 8.125 -9.484375 C 8.71875 -9.023438 9.015625 -8.375 9.015625 -7.53125 C 9.015625 -6.9375 8.859375 -6.4375 8.546875 -6.03125 C 8.234375 -5.632812 7.820312 -5.363281 7.3125 -5.21875 Z M 3.640625 -6.140625 L 5.0625 -6.140625 C 5.78125 -6.140625 6.140625 -6.429688 6.140625 -7.015625 C 6.140625 -7.617188 5.78125 -7.921875 5.0625 -7.921875 L 3.640625 -7.921875 Z M 5.28125 -2.28125 C 6 -2.28125 6.359375 -2.578125 6.359375 -3.171875 C 6.359375 -3.484375 6.265625 -3.71875 6.078125 -3.875 C 5.890625 -4.039062 5.617188 -4.125 5.265625 -4.125 L 3.640625 -4.125 L 3.640625 -2.28125 Z M 5.28125 -2.28125 "/></g></g></g><g fill="#39ca7e" fill-opacity="1"><g transform="translate(73.98125, 30.387376)"><g><path d="M 3.640625 -2.171875 L 6.796875 -2.171875 L 6.796875 0 L 0.8125 0 L 0.8125 -10.171875 L 3.640625 -10.171875 Z M 3.640625 -2.171875 "/></g></g></g><g fill="#39ca7e" fill-opacity="1"><g transform="translate(81.06433, 30.387376)"><g><path d="M 3.640625 -7.90625 L 3.640625 -6.25 L 6.890625 -6.25 L 6.890625 -4.09375 L 3.640625 -4.09375 L 3.640625 -2.265625 L 7.3125 -2.265625 L 7.3125 0 L 0.8125 0 L 0.8125 -10.171875 L 7.3125 -10.171875 L 7.3125 -7.90625 Z M 3.640625 -7.90625 "/></g></g></g><g fill="#39ca7e" fill-opacity="1"><g transform="translate(88.969679, 30.387376)"><g/></g></g><g fill="#39ca7e" fill-opacity="1"><g transform="translate(91.725004, 30.387376)"><g><path d="M 3.640625 -7.90625 L 3.640625 -6.25 L 6.890625 -6.25 L 6.890625 -4.09375 L 3.640625 -4.09375 L 3.640625 -2.265625 L 7.3125 -2.265625 L 7.3125 0 L 0.8125 0 L 0.8125 -10.171875 L 7.3125 -10.171875 L 7.3125 -7.90625 Z M 3.640625 -7.90625 "/></g></g></g><g fill="#39ca7e" fill-opacity="1"><g transform="translate(99.630353, 30.387376)"><g><path d="M 10.234375 0 L 7.40625 0 L 3.640625 -5.6875 L 3.640625 0 L 0.8125 0 L 0.8125 -10.171875 L 3.640625 -10.171875 L 7.40625 -4.421875 L 7.40625 -10.171875 L 10.234375 -10.171875 Z M 10.234375 0 "/></g></g></g><g fill="#39ca7e" fill-opacity="1"><g transform="translate(110.666096, 30.387376)"><g><path d="M 3.640625 -7.90625 L 3.640625 -6.25 L 6.890625 -6.25 L 6.890625 -4.09375 L 3.640625 -4.09375 L 3.640625 -2.265625 L 7.3125 -2.265625 L 7.3125 0 L 0.8125 0 L 0.8125 -10.171875 L 7.3125 -10.171875 L 7.3125 -7.90625 Z M 3.640625 -7.90625 "/></g></g></g><g fill="#39ca7e" fill-opacity="1"><g transform="translate(118.571446, 30.387376)"><g><path d="M 5.96875 0 L 3.9375 -3.75 L 3.640625 -3.75 L 3.640625 0 L 0.8125 0 L 0.8125 -10.171875 L 5.265625 -10.171875 C 6.085938 -10.171875 6.78125 -10.03125 7.34375 -9.75 C 7.914062 -9.46875 8.34375 -9.078125 8.625 -8.578125 C 8.914062 -8.085938 9.0625 -7.535156 9.0625 -6.921875 C 9.0625 -6.222656 8.867188 -5.609375 8.484375 -5.078125 C 8.109375 -4.554688 7.554688 -4.1875 6.828125 -3.96875 L 9.125 0 Z M 3.640625 -5.6875 L 5.03125 -5.6875 C 5.414062 -5.6875 5.703125 -5.773438 5.890625 -5.953125 C 6.085938 -6.140625 6.1875 -6.40625 6.1875 -6.75 C 6.1875 -7.082031 6.085938 -7.34375 5.890625 -7.53125 C 5.703125 -7.71875 5.414062 -7.8125 5.03125 -7.8125 L 3.640625 -7.8125 Z M 3.640625 -5.6875 "/></g></g></g><g fill="#39ca7e" fill-opacity="1"><g transform="translate(128.106903, 30.387376)"><g><path d="M 7.3125 -6.828125 C 7.144531 -7.097656 6.914062 -7.304688 6.625 -7.453125 C 6.34375 -7.597656 6.007812 -7.671875 5.625 -7.671875 C 4.914062 -7.671875 4.351562 -7.4375 3.9375 -6.96875 C 3.53125 -6.507812 3.328125 -5.890625 3.328125 -5.109375 C 3.328125 -4.234375 3.546875 -3.566406 3.984375 -3.109375 C 4.429688 -2.648438 5.070312 -2.421875 5.90625 -2.421875 C 6.894531 -2.421875 7.601562 -2.867188 8.03125 -3.765625 L 5.1875 -3.765625 L 5.1875 -5.796875 L 10.46875 -5.796875 L 10.46875 -3.0625 C 10.25 -2.519531 9.921875 -2.015625 9.484375 -1.546875 C 9.054688 -1.078125 8.515625 -0.6875 7.859375 -0.375 C 7.210938 -0.0703125 6.46875 0.078125 5.625 0.078125 C 4.601562 0.078125 3.703125 -0.140625 2.921875 -0.578125 C 2.140625 -1.015625 1.535156 -1.625 1.109375 -2.40625 C 0.679688 -3.195312 0.46875 -4.097656 0.46875 -5.109375 C 0.46875 -6.109375 0.679688 -7 1.109375 -7.78125 C 1.535156 -8.570312 2.132812 -9.1875 2.90625 -9.625 C 3.6875 -10.0625 4.585938 -10.28125 5.609375 -10.28125 C 6.890625 -10.28125 7.945312 -9.972656 8.78125 -9.359375 C 9.625 -8.742188 10.148438 -7.898438 10.359375 -6.828125 Z M 7.3125 -6.828125 "/></g></g></g><g fill="#39ca7e" fill-opacity="1"><g transform="translate(139.027243, 30.387376)"><g><path d="M 3.640625 -10.171875 L 3.640625 0 L 0.8125 0 L 0.8125 -10.171875 Z M 3.640625 -10.171875 "/></g></g></g><g fill="#39ca7e" fill-opacity="1"><g transform="translate(143.470389, 30.387376)"><g><path d="M 3.640625 -7.90625 L 3.640625 -6.25 L 6.890625 -6.25 L 6.890625 -4.09375 L 3.640625 -4.09375 L 3.640625 -2.265625 L 7.3125 -2.265625 L 7.3125 0 L 0.8125 0 L 0.8125 -10.171875 L 7.3125 -10.171875 L 7.3125 -7.90625 Z M 3.640625 -7.90625 "/></g></g></g><g fill="#39ca7e" fill-opacity="1"><g transform="translate(151.375738, 30.387376)"><g><path d="M 4.65625 0.09375 C 3.46875 0.09375 2.492188 -0.1875 1.734375 -0.75 C 0.972656 -1.3125 0.5625 -2.113281 0.5 -3.15625 L 3.515625 -3.15625 C 3.546875 -2.800781 3.648438 -2.539062 3.828125 -2.375 C 4.015625 -2.21875 4.253906 -2.140625 4.546875 -2.140625 C 4.804688 -2.140625 5.019531 -2.203125 5.1875 -2.328125 C 5.351562 -2.460938 5.4375 -2.644531 5.4375 -2.875 C 5.4375 -3.175781 5.296875 -3.40625 5.015625 -3.5625 C 4.742188 -3.726562 4.296875 -3.910156 3.671875 -4.109375 C 3.003906 -4.335938 2.460938 -4.550781 2.046875 -4.75 C 1.640625 -4.957031 1.285156 -5.257812 0.984375 -5.65625 C 0.679688 -6.0625 0.53125 -6.585938 0.53125 -7.234375 C 0.53125 -7.890625 0.691406 -8.445312 1.015625 -8.90625 C 1.347656 -9.375 1.800781 -9.726562 2.375 -9.96875 C 2.957031 -10.21875 3.613281 -10.34375 4.34375 -10.34375 C 5.53125 -10.34375 6.476562 -10.0625 7.1875 -9.5 C 7.894531 -8.945312 8.269531 -8.171875 8.3125 -7.171875 L 5.234375 -7.171875 C 5.222656 -7.484375 5.128906 -7.710938 4.953125 -7.859375 C 4.773438 -8.015625 4.550781 -8.09375 4.28125 -8.09375 C 4.0625 -8.09375 3.882812 -8.03125 3.75 -7.90625 C 3.613281 -7.78125 3.546875 -7.601562 3.546875 -7.375 C 3.546875 -7.1875 3.617188 -7.019531 3.765625 -6.875 C 3.921875 -6.738281 4.109375 -6.617188 4.328125 -6.515625 C 4.546875 -6.410156 4.875 -6.285156 5.3125 -6.140625 C 5.957031 -5.910156 6.488281 -5.6875 6.90625 -5.46875 C 7.320312 -5.257812 7.679688 -4.957031 7.984375 -4.5625 C 8.296875 -4.175781 8.453125 -3.6875 8.453125 -3.09375 C 8.453125 -2.488281 8.296875 -1.941406 7.984375 -1.453125 C 7.679688 -0.972656 7.242188 -0.59375 6.671875 -0.3125 C 6.097656 -0.0390625 5.425781 0.09375 4.65625 0.09375 Z M 4.65625 0.09375 "/></g></g></g><g fill="#39ca7e" fill-opacity="1"><g transform="translate(160.319741, 30.387376)"><g/></g></g><g fill="#39ca7e" fill-opacity="1"><g transform="translate(163.075066, 30.387376)"><g><path d="M 3.640625 -2.171875 L 6.796875 -2.171875 L 6.796875 0 L 0.8125 0 L 0.8125 -10.171875 L 3.640625 -10.171875 Z M 3.640625 -2.171875 "/></g></g></g><g fill="#39ca7e" fill-opacity="1"><g transform="translate(170.158146, 30.387376)"><g><path d="M 8.46875 -10.171875 L 8.46875 -7.921875 L 5.765625 -7.921875 L 5.765625 0 L 2.9375 0 L 2.9375 -7.921875 L 0.25 -7.921875 L 0.25 -10.171875 Z M 8.46875 -10.171875 "/></g></g></g><g fill="#39ca7e" fill-opacity="1"><g transform="translate(178.871334, 30.387376)"><g><path d="M 4.84375 -10.171875 C 5.90625 -10.171875 6.835938 -9.957031 7.640625 -9.53125 C 8.441406 -9.101562 9.0625 -8.503906 9.5 -7.734375 C 9.9375 -6.960938 10.15625 -6.082031 10.15625 -5.09375 C 10.15625 -4.113281 9.929688 -3.238281 9.484375 -2.46875 C 9.046875 -1.695312 8.425781 -1.09375 7.625 -0.65625 C 6.820312 -0.21875 5.894531 0 4.84375 0 L 0.8125 0 L 0.8125 -10.171875 Z M 4.625 -2.5 C 5.445312 -2.5 6.09375 -2.722656 6.5625 -3.171875 C 7.039062 -3.628906 7.28125 -4.269531 7.28125 -5.09375 C 7.28125 -5.9375 7.039062 -6.582031 6.5625 -7.03125 C 6.09375 -7.488281 5.445312 -7.71875 4.625 -7.71875 L 3.640625 -7.71875 L 3.640625 -2.5 Z M 4.625 -2.5 "/></g></g></g></g></g></g></g></g></svg>