<svg id="Layer_1" data-name="Layer 1" xmlns="http://www.w3.org/2000/svg" xmlns:xlink="http://www.w3.org/1999/xlink" viewBox="0 0 361.55 133.68"><defs><style>.cls-1{fill:none;}.cls-2{clip-path:url(#clip-path);}.cls-3{clip-path:url(#clip-path-2);}.cls-4{fill:#2c3d21;}.cls-5{clip-path:url(#clip-path-3);}.cls-6{clip-path:url(#clip-path-4);}.cls-7{clip-path:url(#clip-path-5);}.cls-8{fill:#fff;}.cls-9{clip-path:url(#clip-path-8);}.cls-10{clip-path:url(#clip-path-9);}.cls-11{clip-path:url(#clip-path-10);}.cls-12{clip-path:url(#clip-path-13);}.cls-13{clip-path:url(#clip-path-14);}.cls-14,.cls-19{fill:#39ca7e;}.cls-14{fill-rule:evenodd;}.cls-15{clip-path:url(#clip-path-16);}.cls-16{clip-path:url(#clip-path-17);}.cls-17{clip-path:url(#clip-path-18);}.cls-18{clip-path:url(#clip-path-19);}</style><clipPath id="clip-path" transform="translate(-83.25 -131.68)"><rect class="cls-1" x="82.67" y="104.72" width="365.33" height="168"/></clipPath><clipPath id="clip-path-2" transform="translate(-83.25 -131.68)"><rect class="cls-1" x="83.25" y="131.68" width="102.04" height="102.04"/></clipPath><clipPath id="clip-path-3" transform="translate(-83.25 -131.68)"><rect class="cls-1" x="100.91" y="149.34" width="66.76" height="66.76"/></clipPath><clipPath id="clip-path-4" transform="translate(-83.25 -131.68)"><circle class="cls-1" cx="134.29" cy="182.72" r="33.38"/></clipPath><clipPath id="clip-path-5" transform="translate(-83.25 -131.68)"><rect class="cls-1" x="100" y="148.72" width="68" height="68"/></clipPath><clipPath id="clip-path-8" transform="translate(-83.25 -131.68)"><rect class="cls-1" x="139.42" y="135.73" width="42.33" height="42.33"/></clipPath><clipPath id="clip-path-9" transform="translate(-83.25 -131.68)"><path class="cls-1" d="M160.58,135.73a21.17,21.17,0,1,0,21.16,21.17A21.16,21.16,0,0,0,160.58,135.73Z"/></clipPath><clipPath id="clip-path-10" transform="translate(-83.25 -131.68)"><rect class="cls-1" x="138.67" y="135.39" width="44" height="44"/></clipPath><clipPath id="clip-path-13" transform="translate(-83.25 -131.68)"><rect class="cls-1" x="120" y="146.05" width="54.67" height="58.67"/></clipPath><clipPath id="clip-path-14" transform="translate(-83.25 -131.68)"><rect class="cls-1" x="118.12" y="146.12" width="61.74" height="58.49" transform="translate(-35.41 37.71) rotate(-12.91)"/></clipPath><clipPath id="clip-path-16" transform="translate(-83.25 -131.68)"><rect class="cls-1" x="184" y="104.88" width="263.9" height="154.51"/></clipPath><clipPath id="clip-path-17" transform="translate(-83.25 -131.68)"><rect class="cls-1" x="184" y="104.72" width="264" height="154.67"/></clipPath><clipPath id="clip-path-18" transform="translate(-83.25 -131.68)"><rect class="cls-1" x="144" y="224.72" width="253.33" height="47.52"/></clipPath><clipPath id="clip-path-19" transform="translate(-83.25 -131.68)"><rect class="cls-1" x="144" y="224.72" width="253.33" height="48"/></clipPath></defs><g class="cls-2"><g class="cls-3"><path class="cls-4" d="M134.29,203.77a21.05,21.05,0,1,1,21.05-21.06A21.05,21.05,0,0,1,134.29,203.77Zm48.28-30.89-9.42-1.12a39.81,39.81,0,0,0-3.63-8.77l5.87-7.46a3.12,3.12,0,0,0-.24-4.14l-9.54-9.53a3.12,3.12,0,0,0-4.14-.24L154,147.49a40.62,40.62,0,0,0-8.78-3.64l-1.11-9.42a3.12,3.12,0,0,0-3.1-2.75H127.55a3.11,3.11,0,0,0-3.1,2.75l-1.12,9.42a40.33,40.33,0,0,0-8.77,3.64l-7.46-5.87a3.12,3.12,0,0,0-4.14.24l-9.53,9.53a3.12,3.12,0,0,0-.24,4.14L99.06,163a39.81,39.81,0,0,0-3.63,8.77L86,172.88A3.11,3.11,0,0,0,83.25,176v13.49a3.12,3.12,0,0,0,2.76,3.1l9.42,1.11a40.08,40.08,0,0,0,3.63,8.78l-5.87,7.45a3.12,3.12,0,0,0,.24,4.14l9.53,9.53a3.12,3.12,0,0,0,4.14.25l7.46-5.87a39.77,39.77,0,0,0,8.77,3.62l1.12,9.43a3.12,3.12,0,0,0,3.1,2.76h13.26a3.12,3.12,0,0,0,3.09-2.69l1.34-9.5A40,40,0,0,0,154,218l7.45,5.87a3.12,3.12,0,0,0,4.14-.25l9.54-9.53a3.12,3.12,0,0,0,.24-4.14l-5.87-7.45a40.08,40.08,0,0,0,3.63-8.78l9.42-1.11a3.12,3.12,0,0,0,2.76-3.1V176a3.11,3.11,0,0,0-2.76-3.09" transform="translate(-83.25 -131.68)"/></g><g class="cls-5"><g class="cls-6"><g class="cls-7"><g class="cls-5"><g class="cls-6"><path class="cls-8" d="M100.91,149.34h66.76V216.1H100.91Z" transform="translate(-83.25 -131.68)"/></g></g></g></g></g><g class="cls-9"><g class="cls-10"><g class="cls-11"><g class="cls-9"><g class="cls-10"><path class="cls-8" d="M139.42,135.73h42.32v42.33H139.42Z" transform="translate(-83.25 -131.68)"/></g></g></g></g></g><g class="cls-12"><g class="cls-13"><g class="cls-13"><path class="cls-14" d="M161.25,153.21c-28.29,6.35-40.44,23-35.48,50.63a.29.29,0,0,1-.56.16c-3.31-8.64-4.93-16.83-4.28-24.42,2.13-25,29.94-34.64,51.87-31.9a1.39,1.39,0,0,1,.91,2.26C160.82,166.18,170.86,200.13,129,194c1.73-20,11.38-34.4,32.23-40.8" transform="translate(-83.25 -131.68)"/></g></g></g><g class="cls-15"><g class="cls-16"><path class="cls-4" d="M231.13,219l-15.52-28.81h-2.34V219H191.54V140.9h34.25q9.42,0,16,3.27a23.06,23.06,0,0,1,9.88,9A25,25,0,0,1,255,165.94a23.19,23.19,0,0,1-4.4,14q-4.37,6-12.79,8.61L255.4,219Zm-17.86-43.66H224c3,0,5.17-.7,6.65-2.11a8,8,0,0,0,2.23-6.1,7.85,7.85,0,0,0-2.27-5.94q-2.28-2.16-6.61-2.16H213.27Z" transform="translate(-83.25 -131.68)"/><path class="cls-4" d="M304.39,219l-15.52-28.81h-2.34V219H264.8V140.9h34.25q9.42,0,16,3.27a23.06,23.06,0,0,1,9.88,9,24.93,24.93,0,0,1,3.33,12.79,23.19,23.19,0,0,1-4.4,14q-4.36,6-12.79,8.61L328.66,219Zm-17.86-43.66h10.75c3,0,5.17-.7,6.65-2.11a8,8,0,0,0,2.23-6.1,7.85,7.85,0,0,0-2.27-5.94q-2.28-2.16-6.61-2.16H286.53Z" transform="translate(-83.25 -131.68)"/><path class="cls-4" d="M359.79,158.29V171h24.94v16.53H359.79v14.08h28.27V219h-50V140.9h50v17.39Z" transform="translate(-83.25 -131.68)"/><path class="cls-4" d="M420.53,202.42H444.8V219h-46V140.9h21.73Z" transform="translate(-83.25 -131.68)"/></g></g><g class="cls-17"><g class="cls-18"><path class="cls-19" d="M162.25,245.36a7.21,7.21,0,0,1-3.5-.87,6.65,6.65,0,0,1-2.54-2.48,7.05,7.05,0,0,1-.92-3.61,6.94,6.94,0,0,1,.92-3.58,6.38,6.38,0,0,1,2.54-2.48,7.26,7.26,0,0,1,7,0,6.39,6.39,0,0,1,2.52,2.48,7,7,0,0,1,.94,3.58,7.07,7.07,0,0,1-.94,3.61,6.67,6.67,0,0,1-2.52,2.48A7.18,7.18,0,0,1,162.25,245.36Zm0-3.5a2.87,2.87,0,0,0,2.27-.94,4.19,4.19,0,0,0,0-5.06,3.24,3.24,0,0,0-4.56,0,4.26,4.26,0,0,0,0,5.08A2.89,2.89,0,0,0,162.25,241.86Z" transform="translate(-83.25 -131.68)"/><path class="cls-19" d="M176,245.36a6.39,6.39,0,0,1-3.9-1.12,4.08,4.08,0,0,1-1.64-3.21h4a1.54,1.54,0,0,0,.42,1,1.41,1.41,0,0,0,1,.31,1.39,1.39,0,0,0,.86-.25.89.89,0,0,0,.33-.73,1,1,0,0,0-.56-.91,8.87,8.87,0,0,0-1.79-.73,20.4,20.4,0,0,1-2.17-.86,4.05,4.05,0,0,1-1.42-1.21,3.44,3.44,0,0,1-.6-2.1,3.74,3.74,0,0,1,.65-2.23,4.16,4.16,0,0,1,1.81-1.42,6.62,6.62,0,0,1,2.62-.5,6,6,0,0,1,3.8,1.13,4,4,0,0,1,1.5,3.1h-4.11a1.17,1.17,0,0,0-.37-.91,1.32,1.32,0,0,0-.9-.32,1,1,0,0,0-.71.25.93.93,0,0,0-.27.71.9.9,0,0,0,.29.67,3.45,3.45,0,0,0,.75.48,10.89,10.89,0,0,0,1.32.5,18.65,18.65,0,0,1,2.12.89,4.48,4.48,0,0,1,1.44,1.21,3.06,3.06,0,0,1,.62,2,4,4,0,0,1-.62,2.19,4.28,4.28,0,0,1-1.75,1.52A6.27,6.27,0,0,1,176,245.36Z" transform="translate(-83.25 -131.68)"/><path class="cls-19" d="M198.64,231.67v13.57h-3.77v-7.48l-2.56,7.48h-3.15l-2.58-7.55v7.55h-3.77V231.67h4.56l3.4,8.82,3.33-8.82Z" transform="translate(-83.25 -131.68)"/><path class="cls-19" d="M204.57,231.67v13.57h-3.78V231.67Z" transform="translate(-83.25 -131.68)"/><path class="cls-19" d="M210.41,231.67v7.86a2.58,2.58,0,0,0,.5,1.71,2.36,2.36,0,0,0,3.12,0,2.47,2.47,0,0,0,.54-1.69v-7.86h3.77v7.86a6.16,6.16,0,0,1-.79,3.21,5.17,5.17,0,0,1-2.14,2,7,7,0,0,1-3,.64,6.6,6.6,0,0,1-3-.64,4.92,4.92,0,0,1-2-2,6.51,6.51,0,0,1-.73-3.21v-7.86Z" transform="translate(-83.25 -131.68)"/><path class="cls-19" d="M236.25,231.67v13.57h-3.77v-7.48l-2.57,7.48h-3.14l-2.59-7.55v7.55h-3.77V231.67H225l3.39,8.82,3.34-8.82Z" transform="translate(-83.25 -131.68)"/><path class="cls-19" d="M249,245.24l-2.71-5h-.4v5h-3.77V231.67H248a6.1,6.1,0,0,1,2.77.57,3.83,3.83,0,0,1,1.71,1.56,4.31,4.31,0,0,1,.58,2.21,4.11,4.11,0,0,1-.77,2.46,4.06,4.06,0,0,1-2.21,1.47l3.06,5.3Zm-3.11-7.59h1.86a1.59,1.59,0,0,0,1.14-.35,1.42,1.42,0,0,0,.4-1.06,1.39,1.39,0,0,0-.4-1.05,1.55,1.55,0,0,0-1.14-.37h-1.86Z" transform="translate(-83.25 -131.68)"/><path class="cls-19" d="M261.29,245.36a7.18,7.18,0,0,1-3.5-.87,6.75,6.75,0,0,1-2.55-2.48,7.15,7.15,0,0,1-.91-3.61,7,7,0,0,1,.91-3.58,6.47,6.47,0,0,1,2.55-2.48,7.26,7.26,0,0,1,7,0,6.46,6.46,0,0,1,2.52,2.48,7,7,0,0,1,.93,3.58,7.06,7.06,0,0,1-.93,3.61,6.74,6.74,0,0,1-2.52,2.48A7.18,7.18,0,0,1,261.29,245.36Zm0-3.5a2.89,2.89,0,0,0,2.27-.94,4.19,4.19,0,0,0,0-5.06,3.25,3.25,0,0,0-4.57,0,4.3,4.3,0,0,0,0,5.08A2.93,2.93,0,0,0,261.29,241.86Z" transform="translate(-83.25 -131.68)"/><path class="cls-19" d="M278.59,238.28a3,3,0,0,1,1.87,1.16,3.4,3.4,0,0,1,.71,2.11,3.32,3.32,0,0,1-1.18,2.71,5.19,5.19,0,0,1-3.36,1h-6.71V231.67h6.5a5.15,5.15,0,0,1,3.25.92,3.1,3.1,0,0,1,1.19,2.6,3.2,3.2,0,0,1-.62,2A3.13,3.13,0,0,1,278.59,238.28Zm-4.9-1.23h1.9q1.44,0,1.44-1.17c0-.8-.48-1.21-1.44-1.21h-1.9Zm2.19,5.14c1,0,1.44-.39,1.44-1.18a1.16,1.16,0,0,0-.38-.94,1.59,1.59,0,0,0-1.08-.33h-2.17v2.45Z" transform="translate(-83.25 -131.68)"/><path class="cls-19" d="M289.33,245.36a7.21,7.21,0,0,1-3.5-.87,6.72,6.72,0,0,1-2.54-2.48,7.05,7.05,0,0,1-.92-3.61,6.94,6.94,0,0,1,.92-3.58,6.44,6.44,0,0,1,2.54-2.48,7.26,7.26,0,0,1,7,0,6.33,6.33,0,0,1,2.52,2.48,6.86,6.86,0,0,1,.94,3.58,7,7,0,0,1-.94,3.61,6.6,6.6,0,0,1-2.52,2.48A7.15,7.15,0,0,1,289.33,245.36Zm0-3.5a2.87,2.87,0,0,0,2.27-.94,4.19,4.19,0,0,0,0-5.06,3.24,3.24,0,0,0-4.56,0,4.26,4.26,0,0,0,0,5.08A2.91,2.91,0,0,0,289.33,241.86Z" transform="translate(-83.25 -131.68)"/><path class="cls-19" d="M308.18,231.67v3h-3.61v10.57H300.8V234.67h-3.58v-3Z" transform="translate(-83.25 -131.68)"/><path class="cls-19" d="M313.36,231.67v13.57h-3.78V231.67Z" transform="translate(-83.25 -131.68)"/><path class="cls-19" d="M315.05,238.42a7.51,7.51,0,0,1,.83-3.56,6.06,6.06,0,0,1,2.38-2.46,7.06,7.06,0,0,1,3.54-.87,6.75,6.75,0,0,1,4.27,1.35,6.19,6.19,0,0,1,2.23,3.69h-4.06a2.63,2.63,0,0,0-2.5-1.58,2.63,2.63,0,0,0-2.11.93,4.48,4.48,0,0,0,0,5,2.63,2.63,0,0,0,2.11.92,2.84,2.84,0,0,0,1.5-.39,2.87,2.87,0,0,0,1-1.17h4.06a6.25,6.25,0,0,1-2.23,3.69,6.75,6.75,0,0,1-4.27,1.35,7.06,7.06,0,0,1-3.54-.87,6.07,6.07,0,0,1-2.38-2.44A7.69,7.69,0,0,1,315.05,238.42Z" transform="translate(-83.25 -131.68)"/><path class="cls-19" d="M335.21,245.36a6.36,6.36,0,0,1-3.89-1.12,4.06,4.06,0,0,1-1.65-3.21h4a1.54,1.54,0,0,0,.42,1,1.44,1.44,0,0,0,1,.31,1.36,1.36,0,0,0,.85-.25.89.89,0,0,0,.33-.73,1,1,0,0,0-.56-.91,8.63,8.63,0,0,0-1.79-.73,21.31,21.31,0,0,1-2.17-.86,3.94,3.94,0,0,1-1.41-1.21,3.38,3.38,0,0,1-.61-2.1,3.81,3.81,0,0,1,.65-2.23,4.22,4.22,0,0,1,1.81-1.42,6.67,6.67,0,0,1,2.63-.5,5.94,5.94,0,0,1,3.79,1.13,4,4,0,0,1,1.5,3.1H336a1.17,1.17,0,0,0-.37-.91,1.32,1.32,0,0,0-.9-.32,1,1,0,0,0-.71.25.93.93,0,0,0-.27.71.91.91,0,0,0,.3.67,3,3,0,0,0,.75.48,10.61,10.61,0,0,0,1.31.5,17.21,17.21,0,0,1,2.12.89,4.38,4.38,0,0,1,1.44,1.21,3,3,0,0,1,.63,2,4,4,0,0,1-.63,2.19,4.28,4.28,0,0,1-1.75,1.52A6.24,6.24,0,0,1,335.21,245.36Z" transform="translate(-83.25 -131.68)"/><path class="cls-19" d="M354.27,243h-4.81l-.73,2.21h-4l5-13.57h4.35L359,245.24h-4Zm-.94-2.9-1.48-4.39-1.43,4.39Z" transform="translate(-83.25 -131.68)"/><path class="cls-19" d="M372.77,245.24H369l-5-7.59v7.59h-3.77V231.67H364l5,7.67v-7.67h3.77Z" transform="translate(-83.25 -131.68)"/><path class="cls-19" d="M380.3,231.67a7.84,7.84,0,0,1,3.73.86,6.14,6.14,0,0,1,2.48,2.39,7.07,7.07,0,0,1,.87,3.52,6.87,6.87,0,0,1-.89,3.5,6.21,6.21,0,0,1-2.48,2.42,7.7,7.7,0,0,1-3.71.88h-5.38V231.67ZM380,241.9a3.57,3.57,0,0,0,2.58-.89,3.93,3.93,0,0,0,0-5.15,3.54,3.54,0,0,0-2.58-.92h-1.32v7Z" transform="translate(-83.25 -131.68)"/><path class="cls-19" d="M154,265.24l-2.71-5h-.4v5h-3.77V251.67H153a6.1,6.1,0,0,1,2.77.57,3.83,3.83,0,0,1,1.71,1.56,4.31,4.31,0,0,1,.58,2.21,4.11,4.11,0,0,1-.77,2.46,4.06,4.06,0,0,1-2.21,1.47l3.06,5.3Zm-3.11-7.59h1.86a1.59,1.59,0,0,0,1.14-.35,1.42,1.42,0,0,0,.4-1.06,1.39,1.39,0,0,0-.4-1.05,1.55,1.55,0,0,0-1.14-.37h-1.86Z" transform="translate(-83.25 -131.68)"/><path class="cls-19" d="M163.58,254.69v2.21h4.33v2.88h-4.33v2.44h4.89v3h-8.66V251.67h8.66v3Z" transform="translate(-83.25 -131.68)"/><path class="cls-19" d="M182.91,265.24h-3.77l-5-7.59v7.59h-3.77V251.67h3.77l5,7.67v-7.67h3.77Z" transform="translate(-83.25 -131.68)"/><path class="cls-19" d="M188.83,254.69v2.21h4.33v2.88h-4.33v2.44h4.9v3h-8.67V251.67h8.67v3Z" transform="translate(-83.25 -131.68)"/><path class="cls-19" d="M214.7,251.67l-3.33,13.57h-4.62l-1.88-8.32L203,265.24h-4.65L195,251.67h4.08l1.58,9.27,2.13-9.27H207l2.08,9.19,1.56-9.19Z" transform="translate(-83.25 -131.68)"/><path class="cls-19" d="M224.88,263h-4.81l-.73,2.21h-4l5-13.57h4.35l4.92,13.57h-4Zm-.94-2.9-1.48-4.39L221,260.13Z" transform="translate(-83.25 -131.68)"/><path class="cls-19" d="M239.49,258.28a3,3,0,0,1,1.87,1.16,3.4,3.4,0,0,1,.71,2.11,3.33,3.33,0,0,1-1.19,2.71,5.14,5.14,0,0,1-3.35,1h-6.71V251.67h6.5a5.17,5.17,0,0,1,3.25.92,3.1,3.1,0,0,1,1.19,2.6,3.05,3.05,0,0,1-2.27,3.09Zm-4.9-1.23h1.9c.95,0,1.43-.39,1.43-1.17s-.48-1.21-1.43-1.21h-1.9Zm2.19,5.14c1,0,1.43-.39,1.43-1.18a1.15,1.15,0,0,0-.37-.94,1.6,1.6,0,0,0-1.08-.33h-2.17v2.45Z" transform="translate(-83.25 -131.68)"/><path class="cls-19" d="M247.5,262.34h4.2v2.9h-8V251.67h3.77Z" transform="translate(-83.25 -131.68)"/><path class="cls-19" d="M256.94,254.69v2.21h4.33v2.88h-4.33v2.44h4.9v3h-8.67V251.67h8.67v3Z" transform="translate(-83.25 -131.68)"/><path class="cls-19" d="M271.15,254.69v2.21h4.34v2.88h-4.34v2.44h4.9v3h-8.67V251.67h8.67v3Z" transform="translate(-83.25 -131.68)"/><path class="cls-19" d="M290.49,265.24h-3.77l-5-7.59v7.59h-3.77V251.67h3.77l5,7.67v-7.67h3.77Z" transform="translate(-83.25 -131.68)"/><path class="cls-19" d="M296.41,254.69v2.21h4.33v2.88h-4.33v2.44h4.89v3h-8.66V251.67h8.66v3Z" transform="translate(-83.25 -131.68)"/><path class="cls-19" d="M310.05,265.24l-2.7-5H307v5h-3.77V251.67h5.94a6.1,6.1,0,0,1,2.77.57,3.83,3.83,0,0,1,1.71,1.56,4.31,4.31,0,0,1,.58,2.21,4.11,4.11,0,0,1-.77,2.46,4.06,4.06,0,0,1-2.21,1.47l3.06,5.3Zm-3.1-7.59h1.85a1.62,1.62,0,0,0,1.15-.35,1.42,1.42,0,0,0,.4-1.06,1.39,1.39,0,0,0-.4-1.05,1.58,1.58,0,0,0-1.15-.37H307Z" transform="translate(-83.25 -131.68)"/><path class="cls-19" d="M324.56,256.13a2.24,2.24,0,0,0-.92-.83,2.9,2.9,0,0,0-1.33-.29,2.85,2.85,0,0,0-2.25.93,3.63,3.63,0,0,0-.81,2.48,3.73,3.73,0,0,0,.87,2.67,3.43,3.43,0,0,0,2.56.92,2.94,2.94,0,0,0,2.84-1.79h-3.79v-2.71h7v3.64a6.43,6.43,0,0,1-1.31,2,6.74,6.74,0,0,1-5.15,2.17,7.24,7.24,0,0,1-3.6-.87,6.11,6.11,0,0,1-2.42-2.44,7.47,7.47,0,0,1-.86-3.61,7.3,7.3,0,0,1,.86-3.56,6.15,6.15,0,0,1,2.39-2.46,7.31,7.31,0,0,1,3.61-.87,7,7,0,0,1,4.23,1.23,5.27,5.27,0,0,1,2.1,3.37Z" transform="translate(-83.25 -131.68)"/><path class="cls-19" d="M334.22,251.67v13.57h-3.77V251.67Z" transform="translate(-83.25 -131.68)"/><path class="cls-19" d="M340.15,254.69v2.21h4.33v2.88h-4.33v2.44H345v3h-8.66V251.67H345v3Z" transform="translate(-83.25 -131.68)"/><path class="cls-19" d="M352,265.36a6.36,6.36,0,0,1-3.89-1.12A4.06,4.06,0,0,1,346.5,261h4a1.54,1.54,0,0,0,.42,1,1.44,1.44,0,0,0,1,.31,1.36,1.36,0,0,0,.85-.25.89.89,0,0,0,.33-.73,1,1,0,0,0-.56-.91,8.63,8.63,0,0,0-1.79-.73,21.31,21.31,0,0,1-2.17-.86,3.94,3.94,0,0,1-1.41-1.21,3.38,3.38,0,0,1-.61-2.1,3.81,3.81,0,0,1,.65-2.23,4.22,4.22,0,0,1,1.81-1.42,6.67,6.67,0,0,1,2.63-.5,5.94,5.94,0,0,1,3.79,1.13,4,4,0,0,1,1.5,3.1h-4.11a1.17,1.17,0,0,0-.37-.91,1.32,1.32,0,0,0-.9-.32,1,1,0,0,0-.71.25.93.93,0,0,0-.27.71.91.91,0,0,0,.3.67,3,3,0,0,0,.75.48,10.61,10.61,0,0,0,1.31.5,17.21,17.21,0,0,1,2.12.89,4.48,4.48,0,0,1,1.44,1.21,3,3,0,0,1,.63,2,4,4,0,0,1-.63,2.19,4.28,4.28,0,0,1-1.75,1.52A6.27,6.27,0,0,1,352,265.36Z" transform="translate(-83.25 -131.68)"/><path class="cls-19" d="M366.29,262.34h4.21v2.9h-8V251.67h3.77Z" transform="translate(-83.25 -131.68)"/><path class="cls-19" d="M382.17,251.67v3h-3.6v10.57h-3.78V254.67h-3.58v-3Z" transform="translate(-83.25 -131.68)"/><path class="cls-19" d="M389,251.67a7.81,7.81,0,0,1,3.73.86,6.08,6.08,0,0,1,2.48,2.39,7,7,0,0,1,.88,3.52,6.88,6.88,0,0,1-.9,3.5,6.09,6.09,0,0,1-2.48,2.42,7.68,7.68,0,0,1-3.71.88h-5.37V251.67Zm-.29,10.23a3.59,3.59,0,0,0,2.59-.89,4,4,0,0,0,0-5.15,3.56,3.56,0,0,0-2.59-.92h-1.31v7Z" transform="translate(-83.25 -131.68)"/></g></g></g></svg>