<svg id="Layer_1" data-name="Layer 1" xmlns="http://www.w3.org/2000/svg" xmlns:xlink="http://www.w3.org/1999/xlink" viewBox="0 0 102.08 102.08"><defs><style>.cls-1{fill:none;}.cls-2{clip-path:url(#clip-path);}.cls-3{fill:#2f5118;}.cls-4{clip-path:url(#clip-path-2);}.cls-5{clip-path:url(#clip-path-3);}.cls-6{fill:#39ca7e;fill-rule:evenodd;}</style><clipPath id="clip-path" transform="translate(-120.29 -72.83)"><rect class="cls-1" x="120.29" y="72.83" width="102.04" height="102.04"/></clipPath><clipPath id="clip-path-2" transform="translate(-120.29 -72.83)"><rect class="cls-1" x="157.04" y="87.21" width="54.67" height="58.67"/></clipPath><clipPath id="clip-path-3" transform="translate(-120.29 -72.83)"><rect class="cls-1" x="155.17" y="87.28" width="61.74" height="58.49" transform="translate(-21.33 44.5) rotate(-12.91)"/></clipPath></defs><g class="cls-2"><path class="cls-3" d="M171.33,144.92a21,21,0,1,1,21-21A21,21,0,0,1,171.33,144.92ZM219.61,114l-9.42-1.11a40.08,40.08,0,0,0-3.63-8.78l5.87-7.45a3.12,3.12,0,0,0-.24-4.14L202.65,83a3.12,3.12,0,0,0-4.14-.25l-7.45,5.87A40,40,0,0,0,182.29,85l-1.12-9.42a3.12,3.12,0,0,0-3.1-2.76H164.59a3.12,3.12,0,0,0-3.1,2.76L160.37,85a40,40,0,0,0-8.77,3.63l-7.45-5.87A3.12,3.12,0,0,0,140,83l-9.54,9.53a3.12,3.12,0,0,0-.24,4.14l5.87,7.45a40.08,40.08,0,0,0-3.63,8.78L123.05,114a3.12,3.12,0,0,0-2.76,3.1v13.48a3.11,3.11,0,0,0,2.76,3.1l9.42,1.12a40,40,0,0,0,3.63,8.77l-5.87,7.45a3.13,3.13,0,0,0,.24,4.15l9.54,9.53a3.12,3.12,0,0,0,4.14.24l7.45-5.87a40,40,0,0,0,8.77,3.63l1.12,9.43a3.12,3.12,0,0,0,3.1,2.75h13.26a3.12,3.12,0,0,0,3.09-2.68l1.35-9.5a40,40,0,0,0,8.77-3.63l7.45,5.87a3.12,3.12,0,0,0,4.14-.24l9.54-9.53a3.13,3.13,0,0,0,.24-4.15l-5.87-7.45a40,40,0,0,0,3.63-8.77l9.42-1.12a3.11,3.11,0,0,0,2.76-3.1V117.13a3.12,3.12,0,0,0-2.76-3.1" transform="translate(-120.29 -72.83)"/></g><g class="cls-4"><g class="cls-5"><g class="cls-5"><path class="cls-6" d="M198.29,94.36c-28.29,6.35-40.44,23-35.48,50.64a.29.29,0,0,1-.56.15c-3.31-8.63-4.93-16.82-4.28-24.41,2.13-25,29.94-34.65,51.87-31.9a1.39,1.39,0,0,1,.91,2.25c-12.89,16.24-2.85,50.19-44.69,44.07,1.73-20,11.38-34.39,32.23-40.8" transform="translate(-120.29 -72.83)"/></g></g></g></svg>